<svg xmlns="http://www.w3.org/2000/svg" viewBox="0 0 799 250"><path d="M119,192.73a232.37,232.37,0,0,1-18.56,91.43l12.79,7q1,5.08,2.72,15.13a81.93,81.93,0,0,0-14.86-1q-9.18,0-19.52.76,3.65-15,8-48.32,4.75-36.61,4.76-56.2,0-15.27-3.23-15.26-5.36,0-12,30.26a505.53,505.53,0,0,0-8.81,55.83q0,33.18,1.2,42,1.8,2.16,6.83,7.88-.51,3.57-1.71,12.72A244.87,244.87,0,0,1,49,316.46q5.13-31.53,5.13-79,0-51-6.28-51-4.15,0-8,20.22-3.7,19.59-5.13,47.18.09,16,4.34,62.82Q30,305.77,20,305.78q-8.82,0-12.19,8.77l-.46-30.39a5,5,0,0,1,4.25-2.67c1.87,0,4,1.32,6.41,3.94q-3-24.66-4.8-60.91-1.8-34.58-1.8-63.32v-5.47q0-10.68-3.09-12.59L2.1,141.87q-1.71-.76-1.71-19.2c0-.68.32-1,1-1q5.27,0,35.81-6.23a607.82,607.82,0,0,0-4.62,76.8q0,8,.28,13.48Q39.21,143,57,119.23q4.11-5.46,7.11-5.46,9.82,0,9.83,53.91Q74,187,72.7,209.9q2.73-16.9,10.29-43,8.6-29.37,18.83-29.37,7.29,0,12.23,15.38Q119,168.7,119,192.73Z" transform="translate(-0.39 -85.41)"/><path d="M197.62,181q0,23.79-4.43,56-5.12,37-12.82,60.27-10.53,31.67-24.14,31.66-12.51,0-22-30.13-9.78-31.29-9.78-75.41,0-42.09,10.11-73,11.11-34,28.84-33.95Q197.63,116.44,197.62,181Zm-12.55,35.36q0-17.8-7.29-30-7.11-12.21-17.12-12.21-9,0-17.63,14a60.19,60.19,0,0,0-9,32.17q0,20.47,8.36,33.95,7.25,11.57,15.46,11.57,10.34,0,18.87-16.15A69.66,69.66,0,0,0,185.07,216.39Z" transform="translate(-0.39 -85.41)"/><path d="M288.9,134.11Q265.7,200.88,265.69,287q0,9.92.28,20.85-7.43,0-27.41,5.73-6.93-17.18-15.55-64.6a971.54,971.54,0,0,1-13.48-106.18,22.1,22.1,0,0,0-4.75-12.46q-3.33-3.44-6.69-6.87l5.3-18.44q14.69,14.12,25.52,20.6a62.73,62.73,0,0,0,26.35,8.78c.34,0,.51.5.51,1.52a44.74,44.74,0,0,1-1.38,8q-1.95,8.26-2.31,10.56a52.83,52.83,0,0,1-6.14-2.42c-2.8-1.18-4.75-1.78-5.86-1.78s-1.8.51-1.8,1.53c-.06,3.47-.09,7.59-.09,12.33a516.77,516.77,0,0,0,3.92,65.62q4.42,34.45,12.78,53.53c.31.94.82,1.4,1.53,1.4s.8-.63.64-1.91q-.45-8.13-.46-23.14,0-77.7,15.41-131.23a49.54,49.54,0,0,0-5.9-8.52l-6.19-7.12q1.4-9.16,4-27.34,9.89,19.57,13.34,26.07,5.63,10.55,11.49,19.71A3.22,3.22,0,0,1,288.9,134.11Z" transform="translate(-0.39 -85.41)"/><path d="M339.3,310.1c0,1.1-.22,1.66-.65,1.66s-3.08-.7-8.24-2.1a50.83,50.83,0,0,0-12.85-2.1q-8.31,0-29.21,9.41,0-4.71,1.34-23a21.3,21.3,0,0,1,4-2.28,11.67,11.67,0,0,0,5.86-7q1.2-3.56,3-39,2.08-38.52,2.08-67.52,0-25.43-1.89-35.1-.42-2.67-1.89-2.67a4.92,4.92,0,0,0-2.82,1.59,8,8,0,0,1-2,1.59c-.52,0-1.42-2.58-2.7-7.76a53.15,53.15,0,0,1-1.91-11.57c0-1.18.57-1.78,1.7-1.78q6.19,0,20.08-4.19,15.92-4.71,23.4-10.18c.18-.51.27,1.66.27,6.49,0,4.41-.27,7-.83,7.63q-6.13,6.87-8.17,28.74-1.1,12.47-2.17,58-.18,8.26-.18,14.5,0,44,3.69,55.19c.71,2.12,1.69,3.18,3,3.18.89,0,2.06-.66,3.53-2a10.75,10.75,0,0,1,2.51-2c.28,0,.46,1.23.55,3.69Q339.3,298.66,339.3,310.1Z" transform="translate(-0.39 -85.41)"/><path d="M419.18,251.61c0,1.86-.05,3.22-.14,4.07q-1.34,33.82-10.94,47.68-7.25,10.42-20.39,10.43-2,0-17-2a83.8,83.8,0,0,1-9.14-2.29,33,33,0,0,0-8.44-1.66q-5.82,0-9,6.24l.32-32.56a4.39,4.39,0,0,1,3.65-2q3.27,0,7.29,5.21-6.28-50.36-6.6-147.63,0-8.78-2.68-11.58a34.59,34.59,0,0,1-6.23-3.68c-.68-1-1-4.62-1-10.81a53.16,53.16,0,0,1,.27-7.12q4.06,3.81,19.25,8.14,15.4,4.44,25.47,4.45a245.9,245.9,0,0,0,27.78-1.91q-2.53,13.1-4.34,28.36-1.29,12.84-2.58,25.56c-.43.08-1.46.34-3.09.76a10.65,10.65,0,0,1-3.05.63c-.61,0-.95-.55-1-1.65q-.37-18.06-2.13-25.43-2.58-11.19-14.44-11.19-.93,0-9.28,1Q369,150.13,369,175.31q0,4.58.14,12.59t.14,11.32q3.64-.76,6.27-1.53c4.25-1.35,6.45-2.67,6.6-3.94a59.71,59.71,0,0,0,.37-6.74A36.11,36.11,0,0,0,381,176.46l-2.5-6.87q2.13-3.18,4-5.47,4.56-5.34,7.43-5.59a87.43,87.43,0,0,1,.92,14.37q0,2.79-.14,8.39t-.14,8.26q0,9.28,1.9,31.29a11,11,0,0,1,0,2.92.4.4,0,0,1-.56.26q-3.87-1.53-13.29-2.55c-2.89-.34-5.77-.63-8.63-.89q.89,44,6.88,60.4,5.2,14.37,17.49,14.37,3.87,0,7.29-4.19,3-3.69,3-6.49c0-.93-.34-1.4-1-1.4a10.58,10.58,0,0,0-2.21.32,10.94,10.94,0,0,1-2.35.32q-9,0-11.82-19.08a44.63,44.63,0,0,1-.46-6.48,35.08,35.08,0,0,1,4.43-17.68,26.74,26.74,0,0,1,13.24-11.82,12.21,12.21,0,0,1,4.43-1Q419.17,227.83,419.18,251.61Z" transform="translate(-0.39 -85.41)"/><path d="M556.47,249.45A137,137,0,0,1,552,283.4q-6.27,24.54-18.32,30.39-8.07,3.94-13.61,3.94-16.53,0-18.51-29.24-.6-9.17-1.1-34-.37-17.53-2-26.06a47.06,47.06,0,0,0-8.58-20.35q-.37,3-.37,17.68a778.72,778.72,0,0,0,4.89,82.52l-21.78.38q-15.09.39-15.64.89c0-.42-.06-.93-.09-1.52q0-14.11,1.61-14.88l5.35-2q2.68-2.3,2.86-11.19,1.2-47.82,2.59-72.36,2.49-42.86,7.94-79.47a6.23,6.23,0,0,1-2.77.5q-4.89,0-7.76-7.24l3-30q8.11,17.42,16.8,24.54a25.93,25.93,0,0,0,16.93,6,87,87,0,0,0,13.59-1.71,97.52,97.52,0,0,1,11.56-1.72q10.2,0,15.37,13.35,4.38,11.33,4.38,29.89,0,28-10.79,44.25Q528,220.33,514.2,220.33a33.26,33.26,0,0,1-9.6-1.53q10.33,6,14.53,14.37,3.42,7,3.42,17.55,0,4.32-.76,14.81T521,282q0,15.64,6.6,15.64,5.25,0,11.86-7.12,6.4-6.87,6.41-11.57c0-1.1-.32-1.65-1-1.65-.43,0-1.95.82-4.57,2.48s-4.75,2.48-6.41,2.48q-6.19,0-7.8-11.07a20.77,20.77,0,0,1-.23-3.43,51.5,51.5,0,0,1,3.92-18.57,56,56,0,0,1,11.49-18.69q3.46-3.69,6.32-3.69,4.2,0,6.7,7.89A48.25,48.25,0,0,1,556.47,249.45Zm-25.8-70.07q0-10.68-8.24-20.66t-17.19-10a18.8,18.8,0,0,0-12.92,4.89,15.5,15.5,0,0,0-5.49,12q0,12.33,11.12,21.23,9,7.13,15.88,7.12a18.84,18.84,0,0,0,11.49-3.43A13.27,13.27,0,0,0,530.67,179.38Z" transform="translate(-0.39 -85.41)"/><path d="M637.5,251.61c0,1.86,0,3.22-.13,4.07q-1.35,33.82-10.94,47.68-7.24,10.42-20.4,10.43-2,0-17-2a83.23,83.23,0,0,1-9.13-2.29,33,33,0,0,0-8.45-1.66q-5.82,0-9,6.24l.32-32.56a4.4,4.4,0,0,1,3.65-2c2.18,0,4.62,1.74,7.29,5.21q-6.27-50.36-6.6-147.63,0-8.78-2.67-11.58a33.92,33.92,0,0,1-6.23-3.68q-1-1.53-1-10.81a50.72,50.72,0,0,1,.28-7.12q4,3.81,19.24,8.14,15.42,4.44,25.47,4.45a246.21,246.21,0,0,0,27.79-1.91q-2.55,13.1-4.34,28.36-1.29,12.84-2.59,25.56c-.43.08-1.46.34-3.09.76a10.6,10.6,0,0,1-3,.63q-.93,0-1-1.65-.37-18.06-2.12-25.43-2.6-11.19-14.45-11.19-.91,0-9.27,1-2.73,17.53-2.72,42.72,0,4.58.13,12.59c.1,5.34.14,9.11.14,11.32,2.43-.51,4.53-1,6.28-1.53,4.24-1.35,6.44-2.67,6.6-3.94a62.14,62.14,0,0,0,.37-6.74,36.11,36.11,0,0,0-1.48-10.55l-2.49-6.87a67.08,67.08,0,0,1,4-5.47q4.57-5.34,7.43-5.59a86.14,86.14,0,0,1,.93,14.37q0,2.79-.14,8.39c-.1,3.73-.14,6.48-.14,8.26q0,9.28,1.89,31.29a11,11,0,0,1,0,2.92.39.39,0,0,1-.55.26q-3.88-1.53-13.29-2.55c-2.9-.34-5.77-.63-8.63-.89q.87,44,6.87,60.4,5.22,14.37,17.49,14.37,3.88,0,7.29-4.19,3-3.69,3-6.49c0-.93-.34-1.4-1-1.4a10.65,10.65,0,0,0-2.22.32,10.86,10.86,0,0,1-2.35.32q-9,0-11.81-19.08a44.63,44.63,0,0,1-.47-6.48,35.08,35.08,0,0,1,4.43-17.68,26.76,26.76,0,0,1,13.25-11.82,12.17,12.17,0,0,1,4.43-1Q637.51,227.83,637.5,251.61Z" transform="translate(-0.39 -85.41)"/><path d="M715.08,322.44q-.37,3-1.71,13-2-1-14.58-10.17-11.68-8.52-13.2-9.92,6-36.24,6-86.09a275,275,0,0,0-1.87-34.84q-1.87-14.25-4.73-14.25-3.46,0-8.22,17.17a222.68,222.68,0,0,0-7,42q0,19.22,4.7,76.3Q664.6,304.13,654,304.13q-8.07,0-10.89,8.14L642.67,281a5.09,5.09,0,0,1,4.34-2.54q3.22,0,6.41,3.82-5.8-43-5.81-115.34,0-5.08.19-14.88t.18-14.49q0-8.4-3.6-10.69c-1-.51-2.78-1.4-5.21-2.67q-1.11-.63-1.11-12c0-1.53.09-3.35.28-5.47q4.38,2.16,37.61,9.41-7.66,29-7.67,74.9c0,4.07.07,7.46.19,10.17a296.66,296.66,0,0,1,9.51-53q5.44-19.2,12.46-31.41,5.89-10.3,9.41-10.3,6,0,9.18,21.36,2.82,19.2,2.82,51.76,0,20.48-2.54,60.46t-2.54,60.21a117.25,117.25,0,0,0,.65,14Q709.22,316.46,715.08,322.44Z" transform="translate(-0.39 -85.41)"/><path d="M799.39,248.43a137.43,137.43,0,0,1-1.52,17.68q-3.93,29-15,44.63-9.74,13.74-21.92,13.73-16.47,0-24.87-24.16-7.62-21.87-7.62-59.89a416.77,416.77,0,0,1,5.22-64q3.64-23.15,7.43-36.37-13.2,4.07-23.63,26.83c-.37,1.1-.61,1-.74-.25q-1-17-2.54-55.45a1.94,1.94,0,0,1,.56-1.27,334.18,334.18,0,0,0,76.1,8.52c.52,0,.7.89.55,2.67q-4.85,52.52-6,84.06a63.78,63.78,0,0,1-8.59-4.71q-2.49-2.3-2.49-7,0-2.55.72-11.38c.47-5.9.71-10.28.71-13.17q0-6.22-1.43-8.77-8.26-15-13.1-16.91-8.36,43.36-8.36,96,0,29.25,3.19,48.07,3.41,20.48,9.41,20.47,4.47,0,9.83-9.79,5-9.27,5-15c0-1.53-.18-2.29-.55-2.29q-7-2.93-12-12.59-5.91-11.31-5.91-27.47,0-8.64,4.18-14.24a13.38,13.38,0,0,1,11.33-5.59,22.71,22.71,0,0,1,7.47,1.52Q799.39,227.7,799.39,248.43Z" transform="translate(-0.39 -85.41)"/></svg>