<svg xmlns="http://www.w3.org/2000/svg" viewBox="0 0 1043.74 593.29"><defs><style>.a{fill:#33465c;}.b{fill:none;}.c{fill:#996b53;}.d{fill:#12b57b;}.e{fill:#60718d;}.f{fill:#bca877;}.g{fill:#a9b3c1;}.h{fill:#ae6344;}.i{fill:#e3e2d5;}.j{fill:#f8db94;}.k{fill:#00a99d;}.l{fill:#f4bb3a;}.m{fill:#39b54a;}.n{fill:#7f2e19;}.o{fill:#999;}.p{fill:#666;}.q{fill:gray;}.r{fill:#7989a3;}.s{fill:#0071bc;}.t{fill:#fff;}.u{fill:#85402a;}.v{fill:#f09b36;}.w{fill:#a17a94;}.x{fill:#31b78d;}.y{fill:#4ac6e0;}.z{fill:#ca6a4f;}.aa{fill:#895881;}.ab{fill:#bec0c2;}.ac{fill:#c2ce2f;}.ad{fill:#b55232;}.ae{fill:#ef4d4e;}.af{fill:#445d7b;}.ag{fill:#0d0e1f;}</style></defs><path class="a" d="M9.17,519.12H1034.58a0,0,0,0,1,0,0V558.2a35.09,35.09,0,0,1-35.09,35.09H44.25A35.09,35.09,0,0,1,9.17,558.2V519.12A0,0,0,0,1,9.17,519.12Z"/><path class="b" d="M825.82,442.84V396.15c0-.79-1.5-2-3-2.77h-6.48v57.33C825.7,449.2,825.82,443.13,825.82,442.84Z"/><path class="c" d="M443.58,198.33v-9.8h9.16v2.69c15.77,2.3,77.66,10.37,138.26,5.18v-7.87h9.16v9.8a15,15,0,0,1,5.29-2.13,12.09,12.09,0,0,1,4.52.05c8-5.86,10.1-18.55,10.64-25-9.89-1.71-14.46-5.37-15-5.83a4.58,4.58,0,0,1-.14-6.87c4.32-4,7.18-12,8.81-18.55-12,3.37-24.88,1.35-25.55,1.24a4.58,4.58,0,0,1-1.94-8.24c4.09-2.94,6.66-11.36,7.92-18.88-22.44,9.38-52.37,14.29-53.78,14.52a4.58,4.58,0,0,1-4-7.68c6.79-7.16,6.76-16.52,5.51-23.18-19.59,23.6-59.85,38.36-61.74,39.05a4.59,4.59,0,0,1-6.1-4.92c.55-4.12-.83-8.92-3-13.18a75,75,0,0,1-9.92,15.06c-5.37,6.61-10.93,13.82-15.28,21.77-7.24,13.23-8.69,27.61-8.72,40.53l.7.1A15,15,0,0,1,443.58,198.33ZM566,138.64c3.7,0,3.69,5.73,0,5.73S562.3,138.64,566,138.64ZM537.05,173c3.69,0,3.69,5.73,0,5.73S533.37,173,537.05,173Zm-9.74.86c3.7,0,3.69,5.73,0,5.73S523.63,173.87,527.31,173.87Zm-6.94-43.8c5.16,0,5.15,8,0,8S515.22,130.07,520.37,130.07Zm-7.5,18.5c5.16,0,5.15,8,0,8S507.72,148.57,512.87,148.57Zm-16-8c5.16,0,5.15,8,0,8S491.72,140.57,496.87,140.57ZM476.5,173.51a188.52,188.52,0,0,0,40.21,2c3.69-.2,3.66,5.53,0,5.73A196.37,196.37,0,0,1,475,179C471.34,178.46,472.89,172.94,476.5,173.51ZM451,168a31.94,31.94,0,0,1,8.11-14.22c3.61-3.69,9.26,2,5.66,5.65a23.76,23.76,0,0,0-6.06,10.7C457.34,175.1,449.62,173,451,168Z"/><path class="d" d="M479.61,476.92,487.1,456H465.83a23.28,23.28,0,0,1-3.61,20.91Z"/><polygon class="e" points="569.4 491.62 660.51 491.62 660.51 486.09 567.42 486.09 569.4 491.62"/><path class="f" d="M600.16,222.06V228H604c1.78-.88,6.52-7.19,7.69-14.33.32-2,.57-5.64-1.49-7.36a3.64,3.64,0,0,0-3.15-1.1c-2.56.45-5.41,3.71-6.91,5.89V218a10.81,10.81,0,0,0,2.7-3,1.72,1.72,0,0,1,3,1.74A14.29,14.29,0,0,1,600.16,222.06Z"/><path class="d" d="M605.72,476.92a23.07,23.07,0,0,1-5.54-14.16L600,456H556.64l7.49,20.91Z"/><path class="g" d="M364.2,441.57H637.54c3.13,0,4.35,3,3.67,5.28h45.27a10,10,0,0,0,9.93-9.93V247.1a10,10,0,0,0-9.93-9.93H357.26a10,10,0,0,0-9.93,9.93V436.92a10,10,0,0,0,9.93,9.93h3.27C359.86,444.53,361.07,441.57,364.2,441.57Zm306-104.33c3.87,0,3.87,6,0,6S666.34,337.24,670.2,337.24Zm2.53,85.16c-4.43,0-4.42-6.87,0-6.87S677.15,422.4,672.73,422.4ZM649.34,251.49H673.4a5.45,5.45,0,0,1,0,10.89H649.34a5.45,5.45,0,1,1,0-10.89ZM612.2,339.91h36.67c3.87,0,3.86,6,0,6H612.2C608.34,345.91,608.34,339.91,612.2,339.91Zm-38,76.38H659c4.43,0,4.42,6.88,0,6.88H574.19C569.76,423.17,569.77,416.29,574.19,416.29Zm-45.32-158c5.16,0,5.15,8,0,8S523.72,258.24,528.87,258.24Zm-14.67,0c5.16,0,5.15,8,0,8S509.06,258.24,514.2,258.24Zm7.67,50.92A32.85,32.85,0,1,1,489,342,32.89,32.89,0,0,1,521.87,309.16ZM407.54,258.24h81.33c5.16,0,5.15,8,0,8H407.54C402.38,266.24,402.39,258.24,407.54,258.24Zm-38.82-.83c4.43,0,4.42,6.88,0,6.88S364.3,257.41,368.72,257.41Zm0,17.57c4.43,0,4.42,6.88,0,6.88S364.3,275,368.72,275Zm0,17.57c4.43,0,4.42,6.88,0,6.88S364.3,292.55,368.72,292.55Zm-3.44,26.35c0-4.43,6.88-4.42,6.88,0v95.48c0,4.43-6.88,4.43-6.88,0Z"/><path class="h" d="M745.39,373.33h-.06v.06Z"/><path class="h" d="M745.33,377.76v77.3h23.3c3,0,2.94,4.58,0,4.58h-23.3v10.69H807.2v-85H777.6c-3,0-3-4.59,0-4.59h29.6v-2.2H747.37A2.75,2.75,0,0,1,745.33,377.76Zm34.94,81.88c-2.95,0-2.94-4.58,0-4.58S783.22,459.64,780.27,459.64Zm10.32,0c-3,0-3-4.58,0-4.58S793.54,459.64,790.59,459.64ZM768.24,406c9.76-5.63,21.3-4,25.72,3.67s.08,18.48-9.68,24.11a24.18,24.18,0,0,1-12,3.35c-5.85,0-11-2.43-13.7-7C754.15,422.48,758.49,411.66,768.24,406Z"/><path class="i" d="M521.87,365.69A23.68,23.68,0,1,0,498.19,342,23.7,23.7,0,0,0,521.87,365.69Z"/><path class="j" d="M591,228V205.6c-14.26,1.19-28.57,1.67-42.34,1.67a715.7,715.7,0,0,1-95.92-6.79V228H479.1v-3.44a5.73,5.73,0,1,1,11.45,0V228h62.64v-3.44a5.73,5.73,0,0,1,11.46,0V228Z"/><path class="f" d="M439.72,228h3.86v-7.18a28.89,28.89,0,0,1-5.12-4.51c-1.47-1.65,1-4.08,2.43-2.43a25.35,25.35,0,0,0,2.69,2.6v-5.38c-1.5-2.18-4.35-5.44-6.91-5.89a3.63,3.63,0,0,0-3.14,1.1c-2.06,1.72-1.82,5.35-1.49,7.36C433.2,220.82,437.94,227.13,439.72,228Z"/><path class="j" d="M609.2,456l.14,6.47A14.13,14.13,0,0,0,624,476a14.14,14.14,0,0,0,13.58-14.6l-.39-5.35Z"/><path class="k" d="M948.67,491.62V479.5h-19.8v12.12Z"/><path class="l" d="M1011.87,391.73H991.06V416h20.81Z"/><path class="m" d="M891.38,388.57V491.62h24.06v-103H891.38Zm18.33,70.59a6.3,6.3,0,1,1-12.6,0V415.34a6.3,6.3,0,0,1,12.6,0Z"/><path class="n" d="M780.85,427.86c6.36-3.68,9.64-10.42,7.16-14.72-1.38-2.38-4.28-3.6-7.67-3.6a17.68,17.68,0,0,0-8.66,2.44c-6.36,3.68-9.64,10.42-7.16,14.72S774.48,431.53,780.85,427.86Zm-10.1-5.14a4.18,4.18,0,0,0,1.48-.35,7.71,7.71,0,0,0,1.88-1.23c.62-.55,1.3-1.32,2.09-2.18a14.08,14.08,0,0,1,2.72-2.37,7,7,0,0,1,3-1.1,4.65,4.65,0,0,1,2.21.27,3,3,0,0,1,.71.38,4.59,4.59,0,0,0-.78.09,4.88,4.88,0,0,0-1.73.73,9.55,9.55,0,0,0-1.85,1.65c-.6.67-1.23,1.52-2,2.4a10.08,10.08,0,0,1-2.87,2.23,6,6,0,0,1-3.07.63,3.6,3.6,0,0,1-1.89-.68,3.53,3.53,0,0,1-.38-.36l-.11-.13A4.12,4.12,0,0,0,770.75,422.72Z"/><path class="o" d="M958.87,367.07a3.06,3.06,0,0,1-1-.18V491.62h24.06V366.9a3.2,3.2,0,0,1-1,.17Zm16.72,95.43H963.85V417.43h11.74Zm0-55.57H963.85V386.6h11.74Z"/><path class="p" d="M1011.87,357.57s0-.06,0-.09H993.21a2.15,2.15,0,0,0-2.15,2.15v22.94h20.81ZM1008,369.79a2.31,2.31,0,0,1-2.29-2.29v-2.86a2.29,2.29,0,1,1,4.58,0v2.86A2.32,2.32,0,0,1,1008,369.79Z"/><path class="p" d="M997.36,465.56c0-2.95,4.58-2.95,4.58,0v26.06h9.93V425.2H991.06v66.42h6.3Zm1.91-14.13c3,0,3,4.58,0,4.58S996.32,451.43,999.27,451.43Z"/><path class="q" d="M928.87,336.57V470.33h19.8V337.09a2.16,2.16,0,0,0-2.15-2.15H928.4A2.9,2.9,0,0,1,928.87,336.57Zm8.53,12.12c0-2.95,4.58-2.95,4.58,0v40.1c0,3-4.58,2.95-4.58,0Zm1.91,48.13c3,0,3,4.58,0,4.58S936.36,396.82,939.31,396.82Zm0,9.54c3,0,3,4.59,0,4.59S936.36,406.36,939.31,406.36Z"/><path class="r" d="M141.76,145.51H339.41a8.32,8.32,0,0,0,8.31-8.31V17.47a8.31,8.31,0,0,0-8.31-8.3H141.76a8.31,8.31,0,0,0-8.3,8.3V137.2A8.31,8.31,0,0,0,141.76,145.51ZM140.62,21.68a6,6,0,0,1,6-6H334.54a6,6,0,0,1,6,6V133a6,6,0,0,1-6,6H146.63a6,6,0,0,1-6-6Z"/><path class="s" d="M862.87,358.57V399.3h19.34V359.63a2.15,2.15,0,0,0-2.15-2.15H862.67A3.07,3.07,0,0,1,862.87,358.57Zm4.73,10.08c3,0,2.95,4.58,0,4.58S864.66,368.65,867.6,368.65Zm-2.29,8.88a2.3,2.3,0,0,1,4.59,0v2.86a2.3,2.3,0,0,1-4.59,0Z"/><path class="s" d="M882.21,491.62V441.93H862.87v49.69Zm-7.44-14.55c-3,0-2.95-4.59,0-4.59S877.71,477.07,874.77,477.07Zm-1.91-21.44c0-2.95,4.58-2.95,4.58,0v10.69c0,3-4.58,2.95-4.58,0Z"/><path class="t" d="M331.39,24.83H149.79v105h181.6Zm-19.8,14.89a6.69,6.69,0,1,1-6.69,6.69A6.7,6.7,0,0,1,311.59,39.72Zm-23.67,0a6.69,6.69,0,1,1-6.69,6.69A6.69,6.69,0,0,1,287.92,39.72Zm-23.67,0a6.69,6.69,0,1,1-6.69,6.69A6.69,6.69,0,0,1,264.25,39.72Zm-23.66,0a6.69,6.69,0,1,1-6.69,6.69A6.7,6.7,0,0,1,240.59,39.72Zm-78-6.3h20.73V72.24H162.63Zm49.69,85.65H163.13V81.17h49.19Zm0-46.83H191.59V33.42h20.73Zm35.46,46.83H233.4V81.17h14.38Zm23.66,0H257.06V81.17h14.38Zm23.67,0H280.73V81.17h14.38Zm23.67,0H304.4V81.17h14.38Zm1.59-46.83h-86.6V66.07h86.6Z"/><path class="l" d="M882.21,432.76v-24.3H862.87v24.3Z"/><rect class="u" x="741.89" y="479.5" width="68.75" height="12.12"/><path class="v" d="M167.79,321.08a5.16,5.16,0,0,0-9.43-2.88,4,4,0,0,1,1-.13c4.67,0,5.09,6.54,1.31,7.78a5.06,5.06,0,0,0,1.95.39A5.17,5.17,0,0,0,167.79,321.08Z"/><path class="t" d="M894,24.83H712.35v105H894ZM746.87,104.26H725.48V82.88h21.39Zm30.69,0H756.18V82.88h21.38Zm30.7,0H786.87V82.88h21.39ZM839,120.14H817.56V98.75H839ZM839,91H817.56V69.63H839Zm31.25,29.13H848.81V98.75H870.2Zm0-29.13H848.81V69.63H870.2Zm10.63-29.12H725.48v-26H880.83Z"/><path class="v" d="M185.43,372.23H179.9l21.5,55.14h5.53Z"/><path class="w" d="M62.13,491.62h56.05v-28h-56v27.26A4.07,4.07,0,0,1,62.13,491.62ZM86.86,475.3h22c3.7,0,3.69,5.73,0,5.73h-22C83.17,481,83.18,475.3,86.86,475.3Zm-10.12,0c3.7,0,3.69,5.73,0,5.73S73.06,475.3,76.74,475.3Zm-11.65,0c3.7,0,3.69,5.73,0,5.73S61.41,475.3,65.09,475.3Z"/><path class="x" d="M180.49,359.56l-5.56-.08,2.9,7.45h5.53Z"/><path class="x" d="M170.45,333.83l-4.8,1.87L173.58,356l5.56.09Z"/><path class="y" d="M255.05,482.75h-47.9c-1.6.82-5.22,4.33-9.28,8.87h66.46C260.28,487.08,256.66,483.57,255.05,482.75Z"/><path class="x" d="M225,473.58l-16.69-42.77h-5.53l16.68,42.77Z"/><polygon class="l" points="68.35 394.52 73.26 394.52 69.44 363.57 64.6 364.17 68.35 394.52"/><rect class="z" x="63.11" y="346.77" width="4.87" height="10.31" transform="translate(-42.61 10.68) rotate(-7.04)"/><path class="aa" d="M118.18,456.78V435.39h-56v21.39Z"/><polygon class="ab" points="110.24 376.71 95.85 374.24 92.37 394.52 107.18 394.52 110.24 376.71"/><path class="ac" d="M112.86,361.44A3,3,0,0,0,110.4,358L102,356.52A3,3,0,0,0,98.47,359L97,367.46l14.38,2.47Z"/><path class="r" d="M704.33,145.51H902a8.31,8.31,0,0,0,8.3-8.31V17.47a8.31,8.31,0,0,0-8.3-8.3H704.33a8.31,8.31,0,0,0-8.3,8.3V137.2A8.31,8.31,0,0,0,704.33,145.51ZM703.19,21.68a6,6,0,0,1,6-6H897.11a6,6,0,0,1,6,6V133a6,6,0,0,1-6,6H709.2a6,6,0,0,1-6-6Z"/><path class="ad" d="M1031.27,506.57H533.14v12.55h501.3a.15.15,0,0,0,.14-.15V504.74A3.64,3.64,0,0,1,1031.27,506.57Z"/><path class="w" d="M62.2,428.51h56V406.17a2.48,2.48,0,0,0-2.48-2.48H62.2Z"/><path class="j" d="M426.52,456l3.62,11.27a14.11,14.11,0,0,0,11.35,9.64h4.22a13.29,13.29,0,0,0,2.21-.5,14.15,14.15,0,0,0,9.14-17.77l-.85-2.64Z"/><path class="v" d="M269.11,206.31l-2.73,4.09,2.17,1.38c1.87,1.18.14,4.15-1.73,3l-2.35-1.49-6.3,9.44-12.93,19.37a117.64,117.64,0,0,0,10.21,11.83l3.7-5.54a2.64,2.64,0,0,1-.35-.23l-3.15-2.58a1.74,1.74,0,0,1,0-2.43,1.77,1.77,0,0,1,2.43,0l3,2.41,22.7-34Q276.52,208.55,269.11,206.31Z"/><path class="e" d="M533.14,476.83v14.79h26.52L546.91,456H501.4a265.86,265.86,0,0,1-11.51,35.61H510.6V476.83a11.27,11.27,0,0,1,22.54,0Z"/><path class="e" d="M476.32,486.09h-30a22.72,22.72,0,0,1-2.72.18,24.5,24.5,0,0,1-2.71-.18H383.23v5.53h91.11Z"/><path class="v" d="M195.83,275.32l2.84-4.09a28.89,28.89,0,0,1-3.79-3.54l-3.29,4.74,3.75,2.43A1.81,1.81,0,0,1,195.83,275.32Z"/><path class="x" d="M217.49,199.54c2.45,9.57,8.19,25.14,21,36.05l21.24-31.81A159.08,159.08,0,0,0,217.49,199.54Zm13.41,15.05a29.86,29.86,0,0,1-5.61-9.57c-.75-2.09,2.57-3,3.31-.91a25.35,25.35,0,0,0,4.73,8C234.78,213.83,232.35,216.27,230.9,214.59Zm4.92,5.11a1.72,1.72,0,0,1,0-3.44A1.72,1.72,0,0,1,235.82,219.7Z"/><path class="ad" d="M509.87,506.57H9.17V519a.14.14,0,0,0,.13.15H510.6V506.5A4.21,4.21,0,0,1,509.87,506.57Z"/><path class="x" d="M224.39,234.22c-.36-.44-.7-.88-1-1.32l-2.94-2-22.32,32.13a46.07,46.07,0,0,1,3.39,4.12Z"/><path class="v" d="M194,278a1.46,1.46,0,0,1-.35-.18l-4-2.57-22.42,32.28a14.26,14.26,0,0,1,4.5,2.49Z"/><path class="z" d="M521.87,474.73a2.1,2.1,0,0,0-2.1,2.1v64.54a2.1,2.1,0,0,0,4.2,0V476.83A2.1,2.1,0,0,0,521.87,474.73Z"/><rect class="x" x="162.63" y="33.42" width="20.73" height="38.82"/><path class="x" d="M191.59,72.24h20.73V33.42H191.59Zm9.28-14.67c5.16,0,5.15,8,0,8S195.72,57.57,200.87,57.57Z"/><path class="v" d="M163.13,119.07h49.19V81.17H163.13Zm17.07-16.16h14c5.16,0,5.15,8,0,8h-14C175.05,110.91,175.06,102.91,180.2,102.91Z"/><rect class="ae" x="233.77" y="66.07" width="86.6" height="6.17"/><circle class="ae" cx="240.59" cy="46.41" r="6.69" transform="translate(-1.4 7.94) rotate(-1.88)"/><circle class="ae" cx="264.25" cy="46.41" r="6.69"/><circle class="ae" cx="287.92" cy="46.41" r="6.69"/><path class="ae" d="M311.59,53.1a6.69,6.69,0,1,0-6.69-6.69A6.69,6.69,0,0,0,311.59,53.1Z"/><rect class="v" x="233.4" y="81.17" width="14.38" height="37.9"/><rect class="x" x="257.06" y="81.17" width="14.38" height="37.9"/><rect class="v" x="280.73" y="81.17" width="14.38" height="37.9"/><rect class="x" x="304.4" y="81.17" width="14.38" height="37.9"/><path class="s" d="M725.48,61.89H880.83v-26H725.48Zm67.89-13.32c3.87,0,3.86,6,0,6S789.51,48.57,793.37,48.57Zm-48.5,1h33c3.87,0,3.86,6,0,6h-33C741,55.57,741,49.57,744.87,49.57Z"/><rect class="o" x="725.48" y="82.88" width="21.39" height="21.39"/><rect class="af" x="756.18" y="82.88" width="21.39" height="21.39"/><rect class="af" x="786.87" y="82.88" width="21.39" height="21.39"/><rect class="ae" x="817.56" y="69.63" width="21.39" height="21.39"/><rect class="e" x="848.81" y="69.63" width="21.39" height="21.39"/><rect class="ae" x="817.56" y="98.75" width="21.39" height="21.39"/><rect class="e" x="848.81" y="98.75" width="21.39" height="21.39"/><path class="t" d="M62.2,490.91V463.65H57.07v28h5.06A4.07,4.07,0,0,0,62.2,490.91Z"/><path class="t" d="M62.2,435.39H57.07v21.39H62.2Z"/><path class="t" d="M59.56,403.69a2.49,2.49,0,0,0-2.49,2.48v22.34H62.2V403.69Z"/><path class="t" d="M509.87,506.57a4.21,4.21,0,0,0,.73-.07v-5.71H9.3a.13.13,0,0,0-.13.14v5.64h500.7Z"/><path class="t" d="M1031.27,506.57a3.64,3.64,0,0,0,3.31-1.83v-3.81a.14.14,0,0,0-.14-.14H533.14v5.78h498.13Z"/><path class="t" d="M407.54,266.24h81.33c5.15,0,5.16-8,0-8H407.54C402.39,258.24,402.38,266.24,407.54,266.24Z"/><path class="t" d="M514.2,266.24c5.15,0,5.16-8,0-8S509.05,266.24,514.2,266.24Z"/><path class="t" d="M528.87,266.24c5.15,0,5.16-8,0-8S523.72,266.24,528.87,266.24Z"/><path class="t" d="M458.66,170.12a23.76,23.76,0,0,1,6.06-10.7c3.6-3.68-2.05-9.34-5.66-5.65A31.94,31.94,0,0,0,451,168C449.62,173,457.34,175.1,458.66,170.12Z"/><path class="t" d="M496.87,148.57c5.15,0,5.16-8,0-8S491.72,148.57,496.87,148.57Z"/><path class="t" d="M520.37,138.07c5.15,0,5.16-8,0-8S515.22,138.07,520.37,138.07Z"/><path class="t" d="M512.87,156.57c5.15,0,5.16-8,0-8S507.72,156.57,512.87,156.57Z"/><path class="t" d="M637.54,441.57H364.2c-3.13,0-4.34,3-3.67,5.28H641.21C641.89,444.53,640.67,441.57,637.54,441.57Z"/><path class="t" d="M496.84,456l-12.76,35.61h5.81A265.86,265.86,0,0,0,501.4,456Z"/><path class="t" d="M180.2,110.91h14c5.15,0,5.16-8,0-8h-14C175.06,102.91,175.05,110.91,180.2,110.91Z"/><path class="t" d="M200.87,65.57c5.15,0,5.16-8,0-8S195.72,65.57,200.87,65.57Z"/><path class="t" d="M285.93,208.23a116.09,116.09,0,0,0-14.84-4.89l-2,3q7.41,2.24,14.63,5.21Z"/><path class="t" d="M259.78,203.78l2.76-4.14c-17.82-9.13-37.86-6.48-46.1-4.78.25,1.3.59,2.88,1.05,4.68A159.08,159.08,0,0,1,259.78,203.78Z"/><path class="t" d="M159.37,318.07a4,4,0,0,0-1,.13,5.14,5.14,0,0,0,2.32,7.65C164.46,324.61,164,318.07,159.37,318.07Z"/><path class="t" d="M744.87,55.57h33c3.86,0,3.87-6,0-6h-33C741,49.57,741,55.57,744.87,55.57Z"/><path class="t" d="M793.37,54.57c3.86,0,3.87-6,0-6S789.5,54.57,793.37,54.57Z"/><path class="t" d="M745.33,377.76a2.75,2.75,0,0,0,2,.81H807.2v-5.24H745.39l-.06.06Z"/><path class="t" d="M862.67,357.48H860.3a2.15,2.15,0,0,0-2.15,2.15V399.3h4.72V358.57A3.07,3.07,0,0,0,862.67,357.48Z"/><path class="t" d="M862.87,441.93h-4.72v49.69h4.72Z"/><path class="t" d="M862.87,408.46h-4.72v24.3h4.72Z"/><path class="t" d="M915.37,388.57h.07v-3.36a2.14,2.14,0,0,0-2.15-2.14H893.53a2.14,2.14,0,0,0-2.15,2.14v3.36Z"/><path class="t" d="M928.87,479.5h-4.26v12.12h4.26Z"/><path class="t" d="M928.4,334.94h-1.65a2.15,2.15,0,0,0-2.14,2.15V470.33h4.26V336.57A2.9,2.9,0,0,0,928.4,334.94Z"/><path class="t" d="M958.87,367.07h22a3.2,3.2,0,0,0,1-.17v-1.55a2.14,2.14,0,0,0-2.14-2.14H960a2.15,2.15,0,0,0-2.15,2.14v1.54A3.06,3.06,0,0,0,958.87,367.07Z"/><path class="t" d="M1015.12,416v-24.3h-3.25V416Z"/><path class="t" d="M1011.87,382.57h3.25V359.63a2.15,2.15,0,0,0-2.15-2.15h-1.09s0,.06,0,.09Z"/><path class="t" d="M1015.12,491.62V425.2h-3.25v66.42Z"/><path class="t" d="M612.2,345.91h36.67c3.86,0,3.87-6,0-6H612.2C608.34,339.91,608.34,345.91,612.2,345.91Z"/><path class="t" d="M670.2,337.24c-3.86,0-3.86,6,0,6S674.07,337.24,670.2,337.24Z"/><path class="ag" d="M1034.44,491.62h-10.15v-132A11.34,11.34,0,0,0,1013,348.31H993.21a11.33,11.33,0,0,0-10.1,6.24,11.29,11.29,0,0,0-3.36-.51H960a11.78,11.78,0,0,0-2.15.21V337.09a11.32,11.32,0,0,0-11.31-11.31H926.75a11.32,11.32,0,0,0-11.31,11.31v37a11.7,11.7,0,0,0-2.15-.21H893.53a11.7,11.7,0,0,0-2.15.21V359.63a11.34,11.34,0,0,0-11.32-11.32H860.3A11.33,11.33,0,0,0,849,359.63v132H819.8v-16.7a4.56,4.56,0,0,0-3.43-4.42V460C831,458.23,835,448.31,835,442.84V396.15c0-7.82-8.57-11.28-9.55-11.64a4.47,4.47,0,0,0-1.62-.3h-7.44V368.74a4.59,4.59,0,0,0-4.59-4.58h-71a4.58,4.58,0,0,0-4.59,4.58V470.5a4.56,4.56,0,0,0-3.43,4.42v16.7H669.67V481.51a4.58,4.58,0,0,0-4.58-4.59H641.17a23.18,23.18,0,0,0,5.57-16,.92.92,0,0,0,0-.16l-.35-4.76h40.1a19.11,19.11,0,0,0,19.09-19.09V247.1A19.11,19.11,0,0,0,686.48,228H615.87a41.26,41.26,0,0,0,3.29-6.86c2.94-8.11,2.51-15.13-1.08-19.79C630.14,189.73,630,168.23,630,167.21a4.58,4.58,0,0,0-4.14-4.49,39.66,39.66,0,0,1-10.1-2.2c6.87-10.21,9-25.44,9.24-27.42a4.57,4.57,0,0,0-6.88-4.51c-5.88,3.49-13.76,4.22-19.62,4.19,5.33-10,6.19-24,6.29-26a4.58,4.58,0,0,0-6.68-4.29c-14.27,7.38-35.65,12.54-48.26,15.15,6.22-15.15-1.25-31.32-1.64-32.14a4.58,4.58,0,0,0-8.13-.29c-11.22,19.91-43.18,35-56.53,40.63a41,41,0,0,0-10.21-20.41,4.59,4.59,0,0,0-7.89,2.46c-1.07,7.3-6.75,15-10.92,20.13-5.65,6.95-11.51,14.56-16.21,23.15-8.72,15.94-10,33.46-9.83,47.5-.26.19-.52.39-.78.61-5.37,4.47-6.49,12.45-3.08,21.87a40.61,40.61,0,0,0,3.3,6.86H357.26a19.11,19.11,0,0,0-19.09,19.09V436.92A19.11,19.11,0,0,0,357.26,456H416.9l4.51,14.08a23.31,23.31,0,0,0,3.54,6.83h-46.3a4.58,4.58,0,0,0-4.58,4.59v10.11h-97.7c-14.54-18-19.25-18-20.83-18H234.8L177.33,326.23a4.69,4.69,0,0,0-.89-1.41,14.37,14.37,0,0,0,.51-3.74,15.31,15.31,0,0,0-.19-2.26L230.84,241a61.14,61.14,0,0,0,5.5,4.47c2.2,3,10.93,14.59,17.55,19a4.57,4.57,0,0,0,2.55.77,5.26,5.26,0,0,0,.89-.08,4.57,4.57,0,0,0,2.92-1.95l36.13-54.15a4.56,4.56,0,0,0-1.26-6.35c-6.63-4.42-20.69-8-24.3-8.92-27.25-16.78-59.54-7.22-60.91-6.8a4.59,4.59,0,0,0-3.22,4.83A88.75,88.75,0,0,0,216,221.39a5,5,0,0,0-.52.6l-60.38,87a14.28,14.28,0,0,0,.09,24.33,4.52,4.52,0,0,0,.29,1.48l54.13,138.82h-2.92c-1.58,0-6.29,0-20.82,18H127.35V406.17a11.67,11.67,0,0,0-11.65-11.65h-1.55l5.49-31.91a9.91,9.91,0,0,0-8.07-11.42l-8.46-1.44a9.86,9.86,0,0,0-11.41,8.06l-6.3,36.71H79L72.67,343a2.88,2.88,0,0,0-1.09-1.9,2.83,2.83,0,0,0-2.11-.59L59,341.78A2.86,2.86,0,0,0,56.46,345l6.12,49.55h-3a11.66,11.66,0,0,0-11.65,11.65v85.45H9.3A9.32,9.32,0,0,0,0,500.93v18a9.32,9.32,0,0,0,9.3,9.32H510.6v13.08a11.27,11.27,0,0,0,22.54,0V528.29h501.3a9.32,9.32,0,0,0,9.3-9.32v-18A9.32,9.32,0,0,0,1034.44,491.62ZM816.37,393.38h6.48c1.47.74,3,2,3,2.77v46.69c0,.29-.12,6.36-9.45,7.87Zm-759.3,42h61.11v21.39H57.07Zm0,28.26h61.11v28H57.07Zm390.85,12.77a13.29,13.29,0,0,1-2.21.5h-4.22a14.11,14.11,0,0,1-11.35-9.64L426.52,456h29.69l.85,2.64A14.15,14.15,0,0,1,447.92,476.42ZM465.83,456H487.1l-7.49,20.91H462.22A23.28,23.28,0,0,0,465.83,456Zm171.75,5.35a14.13,14.13,0,0,1-23.71,10.86,14,14,0,0,1-4.53-9.74L609.2,456h28ZM600,456l.15,6.75a23.07,23.07,0,0,0,5.54,14.16H564.13L556.64,456Zm258.12-47.55h24.06v24.3H858.15Zm0,33.47h24.06v49.69H858.15Zm35.38-58.86h19.76a2.14,2.14,0,0,1,2.15,2.14V491.62H891.38V385.21A2.14,2.14,0,0,1,893.53,383.07Zm31.08,96.43h24.06v12.12H924.61ZM960,363.21h19.77a2.14,2.14,0,0,1,2.14,2.14V491.62H957.83V365.35A2.15,2.15,0,0,1,960,363.21Zm31.08,2.14v-5.72a2.15,2.15,0,0,1,2.15-2.15H1013a2.15,2.15,0,0,1,2.15,2.15v22.94H991.06Zm0,26.38h24.06V416H991.06Zm0,33.47h24.06v66.42h-13.18V465.56c0-2.95-4.58-2.95-4.58,0v26.06h-6.3Zm-42.39-88.11V470.33H924.61V337.09a2.15,2.15,0,0,1,2.14-2.15h19.77A2.16,2.16,0,0,1,948.67,337.09Zm-66.46,22.54V399.3H858.15V359.63a2.15,2.15,0,0,1,2.15-2.15h19.76A2.15,2.15,0,0,1,882.21,359.63Zm-136.82,13.7H807.2v7.44H777.6c-3,0-3,4.59,0,4.59h29.6v85H745.33V459.64h23.3c2.94,0,3-4.58,0-4.58h-23.3V373.33Zm-3.5,106.17h68.75v12.12H741.89Zm-81.38,6.59v5.53H569.4l-2-5.53ZM446.31,155.57c4.35-7.95,9.91-15.16,15.28-21.77a75,75,0,0,0,9.92-15.06c2.21,4.26,3.59,9.06,3,13.18a4.59,4.59,0,0,0,6.1,4.92c1.89-.69,42.15-15.45,61.74-39,1.25,6.66,1.28,16-5.51,23.18a4.58,4.58,0,0,0,4,7.68c1.41-.23,31.34-5.14,53.78-14.52-1.26,7.52-3.83,15.94-7.92,18.88a4.58,4.58,0,0,0,1.94,8.24c.67.11,13.53,2.13,25.55-1.24-1.63,6.54-4.49,14.59-8.81,18.55a4.58,4.58,0,0,0,.14,6.87c.54.46,5.11,4.12,15,5.83-.54,6.44-2.61,19.13-10.64,25a12.09,12.09,0,0,0-4.52-.05,15,15,0,0,0-5.29,2.13v-9.8H591v7.87c-60.6,5.19-122.49-2.88-138.26-5.18v-2.69h-9.16v9.8a15,15,0,0,0-5.29-2.13l-.7-.1C437.62,183.18,439.07,168.8,446.31,155.57ZM602.86,215a10.81,10.81,0,0,1-2.7,3v-6.84c1.5-2.18,4.35-5.44,6.91-5.89a3.64,3.64,0,0,1,3.15,1.1c2.06,1.72,1.81,5.35,1.49,7.36-1.17,7.14-5.91,13.45-7.69,14.33h-3.86v-5.95a14.29,14.29,0,0,0,5.67-5.37A1.72,1.72,0,0,0,602.86,215Zm-43.94,3.89a5.73,5.73,0,0,0-5.73,5.73V228H490.55v-3.44a5.73,5.73,0,1,0-11.45,0V228H452.74V200.48a715.7,715.7,0,0,0,95.92,6.79c13.77,0,28.08-.48,42.34-1.67V228H564.65v-3.44A5.74,5.74,0,0,0,558.92,218.84ZM433.53,206.32a3.63,3.63,0,0,1,3.14-1.1c2.56.45,5.41,3.71,6.91,5.89v5.38a25.35,25.35,0,0,1-2.69-2.6c-1.48-1.65-3.9.78-2.43,2.43a28.89,28.89,0,0,0,5.12,4.51V228h-3.86c-1.78-.88-6.52-7.19-7.68-14.33C431.71,211.67,431.47,208,433.53,206.32Zm-86.2,230.6V247.1a10,10,0,0,1,9.93-9.93H686.48a10,10,0,0,1,9.93,9.93V436.92a10,10,0,0,1-9.93,9.93H357.26A10,10,0,0,1,347.33,436.92Zm35.9,49.17H440.9a24.5,24.5,0,0,0,2.71.18,22.72,22.72,0,0,0,2.72-.18h30l-2,5.53H383.23ZM217.49,199.54c-.46-1.8-.8-3.38-1.05-4.68,8.24-1.7,28.28-4.35,46.1,4.78l-2.76,4.14-21.24,31.81C225.68,224.68,219.94,209.11,217.49,199.54Zm40.59,43.58a1.77,1.77,0,0,0-2.43,0,1.74,1.74,0,0,0,0,2.43l3.15,2.58a2.64,2.64,0,0,0,.35.23l-3.7,5.54a117.64,117.64,0,0,1-10.21-11.83l12.93-19.37,6.3-9.44,2.35,1.49c1.87,1.18,3.6-1.79,1.73-3l-2.17-1.38,2.73-4.09,2-3a116.09,116.09,0,0,1,14.84,4.89l-2.19,3.29-22.7,34Zm-37.67-12.19,2.94,2c.34.44.68.88,1,1.32l-22.91,33a46.07,46.07,0,0,0-3.39-4.12Zm-25.53,36.76a28.89,28.89,0,0,0,3.79,3.54l-2.84,4.09a1.81,1.81,0,0,0-.49-.46l-3.75-2.43Zm-5.25,7.56,4,2.57a1.46,1.46,0,0,0,.35.18l-22.25,32a14.26,14.26,0,0,0-4.5-2.49Zm-28.95,50.6a5.15,5.15,0,1,1,1.95.39A5.06,5.06,0,0,1,160.68,325.85Zm5,9.85,4.8-1.87,8.69,22.28-5.56-.09Zm9.28,23.78,5.56.08,2.87,7.37h-5.53Zm5,12.75h5.53l21.5,55.14H201.4Zm22.84,58.58h5.53L225,473.58h-5.54Zm4.41,51.94h47.9c1.61.82,5.23,4.33,9.28,8.87H197.87C201.93,487.08,205.55,483.57,207.15,482.75ZM98.47,359a3,3,0,0,1,3.48-2.45L110.4,358a3,3,0,0,1,2.46,3.47l-1.46,8.49L97,367.46Zm-2.62,15.27,14.39,2.47-3.06,17.81H92.37ZM73.26,394.52H68.35L64.6,364.17l4.84-.6ZM62.5,347.11l4.83-.6,1.26,10.24-4.83.59Zm53.2,56.58a2.48,2.48,0,0,1,2.48,2.48v22.34H57.07V406.17a2.49,2.49,0,0,1,2.49-2.48H115.7ZM9.3,519.12a.14.14,0,0,1-.13-.15v-18a.13.13,0,0,1,.13-.14H510.6v18.33Zm501.3-42.29v14.79H484.08L496.84,456h50.07l12.75,35.61H533.14V476.83a11.27,11.27,0,0,0-22.54,0ZM524,541.37a2.1,2.1,0,0,1-4.2,0V476.83a2.1,2.1,0,0,1,4.2,0Zm510.47-22.25H533.14V500.79h501.3a.14.14,0,0,1,.14.14v18A.15.15,0,0,1,1034.44,519.12Z"/><path class="ag" d="M521.87,374.85A32.85,32.85,0,1,0,489,342,32.88,32.88,0,0,0,521.87,374.85Zm0-56.52A23.68,23.68,0,1,1,498.19,342,23.7,23.7,0,0,1,521.87,318.33Z"/><path class="ag" d="M649.34,262.38H673.4a5.45,5.45,0,0,0,0-10.89H649.34a5.45,5.45,0,1,0,0,10.89Z"/><path class="ag" d="M372.16,414.38V318.9c0-4.42-6.88-4.43-6.88,0v95.48C365.28,418.81,372.16,418.81,372.16,414.38Z"/><path class="ag" d="M368.72,299.43c4.42,0,4.43-6.88,0-6.88S364.29,299.43,368.72,299.43Z"/><path class="ag" d="M368.72,281.86c4.42,0,4.43-6.88,0-6.88S364.29,281.86,368.72,281.86Z"/><path class="ag" d="M368.72,264.29c4.42,0,4.43-6.88,0-6.88S364.29,264.29,368.72,264.29Z"/><path class="ag" d="M574.19,423.17H659c4.42,0,4.43-6.88,0-6.88H574.19C569.77,416.29,569.76,423.17,574.19,423.17Z"/><path class="ag" d="M672.73,415.53c-4.42,0-4.43,6.87,0,6.87S677.16,415.53,672.73,415.53Z"/><path class="ag" d="M65.09,481c3.69,0,3.7-5.73,0-5.73S61.4,481,65.09,481Z"/><path class="ag" d="M76.74,481c3.69,0,3.7-5.73,0-5.73S73.05,481,76.74,481Z"/><path class="ag" d="M86.86,481h22c3.69,0,3.7-5.73,0-5.73h-22C83.18,475.3,83.17,481,86.86,481Z"/><path class="ag" d="M228.6,204.11c-.74-2.07-4.06-1.18-3.31.91a29.86,29.86,0,0,0,5.61,9.57c1.45,1.68,3.88-.76,2.43-2.43A25.35,25.35,0,0,1,228.6,204.11Z"/><path class="ag" d="M235.82,216.26a1.72,1.72,0,0,0,0,3.44A1.72,1.72,0,0,0,235.82,216.26Z"/><path class="ag" d="M903.41,409a6.3,6.3,0,0,0-6.3,6.3v43.82a6.3,6.3,0,1,0,12.6,0V415.34A6.3,6.3,0,0,0,903.41,409Z"/><rect class="ag" x="963.85" y="386.6" width="11.74" height="20.34"/><rect class="ag" x="963.85" y="417.43" width="11.74" height="45.07"/><path class="ag" d="M942,388.79v-40.1c0-2.95-4.58-2.95-4.58,0v40.1C937.4,391.74,942,391.75,942,388.79Z"/><path class="ag" d="M939.31,401.4c3,0,3-4.58,0-4.58S936.36,401.4,939.31,401.4Z"/><path class="ag" d="M939.31,411c3,0,3-4.59,0-4.59S936.36,411,939.31,411Z"/><path class="ag" d="M999.27,456c3,0,3-4.58,0-4.58S996.32,456,999.27,456Z"/><path class="ag" d="M877.44,466.32V455.63c0-2.95-4.58-2.95-4.58,0v10.69C872.86,469.27,877.44,469.28,877.44,466.32Z"/><path class="ag" d="M874.77,472.48c-2.95,0-3,4.59,0,4.59S877.72,472.48,874.77,472.48Z"/><path class="ag" d="M867.6,382.68a2.32,2.32,0,0,0,2.3-2.29v-2.86a2.3,2.3,0,0,0-4.59,0v2.86A2.32,2.32,0,0,0,867.6,382.68Z"/><path class="ag" d="M867.6,373.23c2.95,0,3-4.58,0-4.58S864.65,373.23,867.6,373.23Z"/><path class="ag" d="M1008,362.35a2.32,2.32,0,0,0-2.29,2.29v2.86a2.29,2.29,0,1,0,4.58,0v-2.86A2.31,2.31,0,0,0,1008,362.35Z"/><path class="ag" d="M475,179a196.37,196.37,0,0,0,41.74,2.16c3.66-.2,3.69-5.93,0-5.73a188.52,188.52,0,0,1-40.21-2C472.89,172.94,471.34,178.46,475,179Z"/><path class="ag" d="M527.31,179.6c3.69,0,3.7-5.73,0-5.73S523.62,179.6,527.31,179.6Z"/><path class="ag" d="M537.05,178.74c3.69,0,3.69-5.73,0-5.73S533.36,178.74,537.05,178.74Z"/><path class="ag" d="M566,144.37c3.69,0,3.7-5.73,0-5.73S562.29,144.37,566,144.37Z"/><path class="ag" d="M772.27,437.16a24.18,24.18,0,0,0,12-3.35c9.76-5.63,14.1-16.45,9.68-24.11s-16-9.3-25.72-3.67-14.09,16.45-9.67,24.11C761.22,434.73,766.42,437.16,772.27,437.16ZM771.68,412a17.68,17.68,0,0,1,8.66-2.44c3.39,0,6.29,1.22,7.67,3.6,2.48,4.3-.8,11-7.16,14.72S767,431,764.52,426.7,765.32,415.66,771.68,412Z"/><path class="ag" d="M770.64,423.19a3.6,3.6,0,0,0,1.89.68,6,6,0,0,0,3.07-.63,10.08,10.08,0,0,0,2.87-2.23c.82-.88,1.45-1.73,2-2.4a9.55,9.55,0,0,1,1.85-1.65,4.88,4.88,0,0,1,1.73-.73,4.59,4.59,0,0,1,.78-.09,3,3,0,0,0-.71-.38,4.65,4.65,0,0,0-2.21-.27,7,7,0,0,0-3,1.1A14.08,14.08,0,0,0,776.2,419c-.79.86-1.47,1.63-2.09,2.18a7.71,7.71,0,0,1-1.88,1.23,4.18,4.18,0,0,1-1.48.35,4.12,4.12,0,0,1-.6,0l.11.13A3.53,3.53,0,0,0,770.64,423.19Z"/><path class="ag" d="M780.27,455.06c-2.94,0-2.95,4.58,0,4.58S783.23,455.06,780.27,455.06Z"/><path class="ag" d="M790.59,455.06c-3,0-3,4.58,0,4.58S793.54,455.06,790.59,455.06Z"/><path class="ag" d="M141.76,154.68H339.41a17.5,17.5,0,0,0,17.47-17.48V17.47A17.49,17.49,0,0,0,339.41,0H141.76a17.49,17.49,0,0,0-17.47,17.47V137.2A17.5,17.5,0,0,0,141.76,154.68Zm-8.3-137.21a8.31,8.31,0,0,1,8.3-8.3H339.41a8.31,8.31,0,0,1,8.31,8.3V137.2a8.32,8.32,0,0,1-8.31,8.31H141.76a8.31,8.31,0,0,1-8.3-8.31Z"/><path class="ag" d="M146.63,139H334.54a6,6,0,0,0,6-6V21.68a6,6,0,0,0-6-6H146.63a6,6,0,0,0-6,6V133A6,6,0,0,0,146.63,139Zm3.16-114.19h181.6v105H149.79Z"/><path class="ag" d="M704.33,154.68H902a17.5,17.5,0,0,0,17.47-17.48V17.47A17.49,17.49,0,0,0,902,0H704.33a17.49,17.49,0,0,0-17.47,17.47V137.2A17.5,17.5,0,0,0,704.33,154.68ZM696,17.47a8.31,8.31,0,0,1,8.3-8.3H902a8.31,8.31,0,0,1,8.3,8.3V137.2a8.31,8.31,0,0,1-8.3,8.31H704.33a8.31,8.31,0,0,1-8.3-8.31Z"/><path class="ag" d="M709.2,139H897.11a6,6,0,0,0,6-6V21.68a6,6,0,0,0-6-6H709.2a6,6,0,0,0-6,6V133A6,6,0,0,0,709.2,139Zm3.15-114.19H894v105H712.35Z"/></svg>